<?xml version="1.0" encoding="UTF-8"?>
<svg xmlns="http://www.w3.org/2000/svg" xmlns:xlink="http://www.w3.org/1999/xlink" width="32px" height="32px" viewBox="0 0 32 32" version="1.1">
<g id="surface1">
<path style=" stroke:none;fill-rule:nonzero;fill:rgb(4.313726%,42.352942%,27.058825%);fill-opacity:1;" d="M 0 0 C 10.558594 0 21.121094 0 32 0 C 32 10.558594 32 21.121094 32 32 C 21.441406 32 10.878906 32 0 32 C 0 21.441406 0 10.878906 0 0 Z M 0 0 "/>
<path style=" stroke:none;fill-rule:nonzero;fill:rgb(89.019608%,87.450981%,85.09804%);fill-opacity:1;" d="M 0 0 C 10.558594 0 21.121094 0 32 0 C 32 10.558594 32 21.121094 32 32 C 21.441406 32 10.878906 32 0 32 C 0 21.441406 0 10.878906 0 0 Z M 7.34375 4.40625 C 7.320312 4.410156 7.296875 4.414062 7.273438 4.417969 C 6.332031 4.574219 5.449219 5.050781 4.882812 5.832031 C 4.457031 6.449219 4.214844 7.160156 4.214844 7.910156 C 4.214844 7.941406 4.214844 7.96875 4.214844 7.996094 C 4.214844 8.089844 4.214844 8.183594 4.214844 8.277344 C 4.214844 8.347656 4.214844 8.414062 4.214844 8.480469 C 4.214844 8.667969 4.214844 8.855469 4.214844 9.042969 C 4.214844 9.242188 4.214844 9.445312 4.214844 9.644531 C 4.210938 10.109375 4.210938 10.570312 4.210938 11.035156 C 4.210938 11.261719 4.210938 11.492188 4.210938 11.71875 C 4.210938 12.503906 4.210938 13.289062 4.210938 14.070312 C 4.210938 14.121094 4.210938 14.171875 4.210938 14.21875 C 4.210938 14.269531 4.210938 14.316406 4.210938 14.367188 C 4.210938 14.464844 4.210938 14.566406 4.210938 14.664062 C 4.210938 14.6875 4.210938 14.714844 4.210938 14.738281 C 4.210938 15.535156 4.210938 16.328125 4.210938 17.125 C 4.210938 17.964844 4.207031 18.804688 4.207031 19.644531 C 4.207031 19.738281 4.207031 19.832031 4.207031 19.921875 C 4.207031 19.945312 4.207031 19.96875 4.207031 19.992188 C 4.207031 20.359375 4.207031 20.722656 4.207031 21.089844 C 4.207031 21.457031 4.207031 21.824219 4.207031 22.191406 C 4.207031 22.390625 4.207031 22.589844 4.207031 22.789062 C 4.207031 22.972656 4.207031 23.152344 4.207031 23.335938 C 4.207031 23.402344 4.207031 23.46875 4.207031 23.53125 C 4.203125 24.648438 4.515625 25.632812 5.3125 26.4375 C 6.128906 27.257812 7.261719 27.476562 8.375 27.476562 C 8.4375 27.476562 8.496094 27.476562 8.558594 27.476562 C 8.625 27.476562 8.695312 27.476562 8.761719 27.476562 C 8.945312 27.476562 9.125 27.476562 9.308594 27.476562 C 9.507812 27.476562 9.707031 27.476562 9.902344 27.476562 C 10.289062 27.476562 10.675781 27.476562 11.066406 27.476562 C 11.378906 27.476562 11.695312 27.476562 12.007812 27.476562 C 12.054688 27.476562 12.101562 27.476562 12.144531 27.476562 C 12.214844 27.476562 12.28125 27.476562 12.351562 27.476562 C 12.984375 27.480469 13.621094 27.480469 14.253906 27.480469 C 14.277344 27.480469 14.304688 27.480469 14.328125 27.480469 C 14.449219 27.480469 14.570312 27.480469 14.691406 27.480469 C 14.714844 27.480469 14.738281 27.480469 14.761719 27.480469 C 14.8125 27.480469 14.859375 27.480469 14.910156 27.480469 C 15.664062 27.476562 16.421875 27.480469 17.179688 27.480469 C 18.03125 27.480469 18.882812 27.480469 19.734375 27.480469 C 19.824219 27.480469 19.914062 27.480469 20.003906 27.480469 C 20.027344 27.480469 20.050781 27.480469 20.074219 27.480469 C 20.410156 27.480469 20.746094 27.480469 21.082031 27.480469 C 21.464844 27.480469 21.851562 27.480469 22.234375 27.480469 C 22.429688 27.480469 22.625 27.480469 22.820312 27.480469 C 22.996094 27.480469 23.175781 27.480469 23.355469 27.480469 C 23.421875 27.480469 23.484375 27.480469 23.550781 27.480469 C 24.75 27.484375 25.894531 27.226562 26.773438 26.367188 C 27.199219 25.9375 27.464844 25.433594 27.632812 24.855469 C 27.640625 24.832031 27.648438 24.804688 27.65625 24.777344 C 27.78125 24.328125 27.789062 23.886719 27.789062 23.421875 C 27.789062 23.355469 27.789062 23.285156 27.789062 23.21875 C 27.789062 23.03125 27.789062 22.847656 27.789062 22.664062 C 27.789062 22.460938 27.789062 22.261719 27.789062 22.0625 C 27.789062 21.695312 27.789062 21.324219 27.789062 20.957031 C 27.789062 20.613281 27.789062 20.273438 27.789062 19.933594 C 27.789062 19.910156 27.789062 19.886719 27.789062 19.863281 C 27.789062 19.773438 27.789062 19.679688 27.789062 19.589844 C 27.789062 18.726562 27.789062 17.863281 27.789062 17.003906 C 27.789062 16.238281 27.789062 15.472656 27.789062 14.707031 C 27.789062 13.847656 27.789062 12.988281 27.789062 12.128906 C 27.789062 12.035156 27.789062 11.945312 27.789062 11.851562 C 27.789062 11.828125 27.789062 11.808594 27.789062 11.785156 C 27.789062 11.441406 27.789062 11.101562 27.789062 10.761719 C 27.789062 10.375 27.789062 9.988281 27.789062 9.601562 C 27.789062 9.402344 27.789062 9.203125 27.789062 9.007812 C 27.789062 8.824219 27.789062 8.644531 27.789062 8.464844 C 27.789062 8.398438 27.789062 8.332031 27.789062 8.269531 C 27.789062 7.804688 27.777344 7.355469 27.636719 6.90625 C 27.625 6.867188 27.625 6.867188 27.613281 6.828125 C 27.324219 5.929688 26.691406 5.1875 25.855469 4.753906 C 25.082031 4.375 24.214844 4.300781 23.367188 4.304688 C 23.304688 4.304688 23.238281 4.304688 23.171875 4.304688 C 22.992188 4.304688 22.816406 4.304688 22.636719 4.304688 C 22.441406 4.304688 22.25 4.304688 22.054688 4.304688 C 21.679688 4.304688 21.300781 4.304688 20.921875 4.304688 C 20.613281 4.304688 20.308594 4.304688 20 4.304688 C 19.957031 4.304688 19.910156 4.304688 19.867188 4.304688 C 19.800781 4.304688 19.734375 4.304688 19.667969 4.304688 C 19.046875 4.300781 18.425781 4.300781 17.804688 4.300781 C 17.769531 4.300781 17.769531 4.300781 17.734375 4.300781 C 17.617188 4.300781 17.5 4.300781 17.378906 4.300781 C 17.355469 4.300781 17.332031 4.300781 17.308594 4.300781 C 17.261719 4.300781 17.214844 4.300781 17.167969 4.300781 C 16.429688 4.304688 15.6875 4.300781 14.949219 4.300781 C 14.121094 4.300781 13.289062 4.300781 12.457031 4.300781 C 12.367188 4.300781 12.277344 4.300781 12.191406 4.300781 C 12.15625 4.300781 12.15625 4.300781 12.125 4.300781 C 11.792969 4.300781 11.464844 4.300781 11.136719 4.300781 C 10.761719 4.300781 10.386719 4.300781 10.015625 4.300781 C 9.824219 4.300781 9.632812 4.300781 9.441406 4.300781 C 8.390625 4.292969 8.390625 4.292969 7.34375 4.40625 Z M 7.34375 4.40625 "/>
<path style=" stroke:none;fill-rule:nonzero;fill:rgb(89.803922%,88.627452%,86.274511%);fill-opacity:1;" d="M 13.625 6.488281 C 13.660156 6.488281 13.699219 6.488281 13.734375 6.484375 C 13.777344 6.484375 13.816406 6.488281 13.859375 6.488281 C 13.902344 6.484375 13.945312 6.484375 13.988281 6.484375 C 14.105469 6.484375 14.222656 6.484375 14.339844 6.484375 C 14.414062 6.484375 14.488281 6.484375 14.5625 6.484375 C 14.816406 6.484375 15.074219 6.484375 15.332031 6.484375 C 15.570312 6.484375 15.808594 6.480469 16.046875 6.480469 C 16.253906 6.480469 16.457031 6.476562 16.664062 6.480469 C 16.785156 6.480469 16.910156 6.476562 17.03125 6.476562 C 17.148438 6.476562 17.261719 6.476562 17.378906 6.476562 C 17.441406 6.476562 17.5 6.476562 17.5625 6.476562 C 17.773438 6.476562 17.914062 6.492188 18.078125 6.632812 C 18.1875 6.761719 18.230469 6.855469 18.230469 7.027344 C 18.230469 7.082031 18.230469 7.082031 18.230469 7.136719 C 18.230469 7.175781 18.230469 7.214844 18.230469 7.257812 C 18.230469 7.300781 18.230469 7.34375 18.230469 7.386719 C 18.230469 7.5 18.230469 7.617188 18.226562 7.730469 C 18.226562 7.851562 18.226562 7.972656 18.226562 8.089844 C 18.226562 8.320312 18.226562 8.546875 18.226562 8.777344 C 18.222656 9.035156 18.222656 9.292969 18.222656 9.554688 C 18.222656 10.089844 18.222656 10.621094 18.21875 11.15625 C 18.191406 11.140625 18.160156 11.121094 18.132812 11.105469 C 18.09375 11.082031 18.054688 11.058594 18.015625 11.035156 C 17.996094 11.027344 17.976562 11.015625 17.957031 11.003906 C 17.40625 10.683594 16.691406 10.578125 16.066406 10.714844 C 15.949219 10.75 15.832031 10.792969 15.71875 10.84375 C 15.683594 10.859375 15.652344 10.871094 15.617188 10.886719 C 15.394531 10.988281 15.210938 11.121094 15.03125 11.28125 C 15.011719 11.300781 14.992188 11.316406 14.972656 11.335938 C 14.527344 11.753906 14.265625 12.367188 14.242188 12.972656 C 14.226562 13.757812 14.417969 14.433594 14.972656 15.011719 C 15.085938 15.125 15.199219 15.234375 15.3125 15.347656 C 15.371094 15.402344 15.429688 15.460938 15.488281 15.515625 C 15.523438 15.554688 15.558594 15.589844 15.597656 15.625 C 15.636719 15.664062 15.679688 15.707031 15.71875 15.75 C 15.71875 15.769531 15.71875 15.792969 15.71875 15.8125 C 15.738281 15.8125 15.761719 15.8125 15.78125 15.8125 C 15.828125 15.859375 15.828125 15.859375 15.878906 15.925781 C 15.988281 16.050781 16.105469 16.164062 16.226562 16.277344 C 16.273438 16.316406 16.316406 16.359375 16.363281 16.398438 C 16.398438 16.429688 16.398438 16.429688 16.433594 16.464844 C 16.585938 16.605469 16.734375 16.746094 16.886719 16.890625 C 17.015625 17.015625 17.148438 17.136719 17.28125 17.257812 C 18.257812 18.136719 18.257812 18.136719 18.296875 18.695312 C 18.304688 19.027344 18.300781 19.382812 18.09375 19.65625 C 17.976562 19.78125 17.871094 19.839844 17.699219 19.847656 C 17.652344 19.847656 17.652344 19.847656 17.605469 19.847656 C 17.570312 19.847656 17.53125 19.847656 17.496094 19.847656 C 17.4375 19.847656 17.4375 19.847656 17.378906 19.847656 C 17.335938 19.847656 17.292969 19.847656 17.25 19.847656 C 17.136719 19.851562 17.023438 19.851562 16.910156 19.851562 C 16.839844 19.851562 16.769531 19.851562 16.695312 19.851562 C 16.472656 19.851562 16.253906 19.851562 16.03125 19.851562 C 15.773438 19.851562 15.515625 19.851562 15.261719 19.851562 C 15.0625 19.851562 14.863281 19.855469 14.664062 19.855469 C 14.546875 19.855469 14.425781 19.855469 14.308594 19.855469 C 14.199219 19.855469 14.085938 19.855469 13.972656 19.855469 C 13.914062 19.855469 13.855469 19.855469 13.792969 19.855469 C 13.578125 19.855469 13.417969 19.847656 13.253906 19.695312 C 13.238281 19.679688 13.222656 19.660156 13.207031 19.640625 C 13.195312 19.621094 13.179688 19.605469 13.164062 19.585938 C 13.09375 19.488281 13.089844 19.402344 13.089844 19.285156 C 13.089844 19.253906 13.089844 19.226562 13.089844 19.191406 C 13.089844 19.160156 13.089844 19.125 13.089844 19.089844 C 13.089844 19.054688 13.089844 19.019531 13.089844 18.980469 C 13.089844 18.902344 13.085938 18.824219 13.085938 18.746094 C 13.085938 18.625 13.085938 18.5 13.085938 18.378906 C 13.082031 18.027344 13.082031 17.675781 13.082031 17.328125 C 13.082031 17.113281 13.078125 16.898438 13.078125 16.683594 C 13.078125 16.601562 13.078125 16.523438 13.078125 16.441406 C 13.078125 16.324219 13.078125 16.210938 13.074219 16.097656 C 13.074219 16.0625 13.074219 16.03125 13.074219 15.996094 C 13.074219 15.964844 13.074219 15.933594 13.074219 15.902344 C 13.074219 15.859375 13.074219 15.859375 13.074219 15.820312 C 13.066406 15.75 13.066406 15.75 13.023438 15.695312 C 12.949219 15.644531 12.902344 15.644531 12.8125 15.644531 C 12.78125 15.644531 12.75 15.644531 12.714844 15.644531 C 12.679688 15.644531 12.644531 15.644531 12.609375 15.644531 C 12.570312 15.644531 12.535156 15.644531 12.496094 15.644531 C 12.394531 15.644531 12.292969 15.644531 12.191406 15.644531 C 12.082031 15.644531 11.976562 15.644531 11.871094 15.644531 C 11.550781 15.644531 11.234375 15.640625 10.917969 15.644531 C 10.667969 15.644531 10.421875 15.640625 10.175781 15.640625 C 10.070312 15.640625 9.964844 15.640625 9.855469 15.640625 C 9.738281 15.640625 9.621094 15.640625 9.5 15.640625 C 9.464844 15.640625 9.429688 15.640625 9.394531 15.640625 C 9.195312 15.640625 9.066406 15.628906 8.90625 15.5 C 8.75 15.308594 8.761719 15.113281 8.765625 14.875 C 8.765625 14.835938 8.765625 14.792969 8.765625 14.753906 C 8.765625 14.640625 8.765625 14.53125 8.765625 14.421875 C 8.765625 14.304688 8.765625 14.1875 8.765625 14.074219 C 8.765625 13.878906 8.765625 13.683594 8.765625 13.488281 C 8.765625 13.261719 8.765625 13.039062 8.765625 12.8125 C 8.765625 12.617188 8.765625 12.425781 8.765625 12.230469 C 8.765625 12.117188 8.765625 12 8.765625 11.886719 C 8.765625 11.757812 8.765625 11.628906 8.765625 11.5 C 8.765625 11.460938 8.765625 11.421875 8.765625 11.382812 C 8.765625 11.175781 8.773438 11.039062 8.90625 10.875 C 9.09375 10.699219 9.289062 10.695312 9.535156 10.699219 C 9.574219 10.699219 9.613281 10.699219 9.648438 10.699219 C 9.75 10.699219 9.855469 10.699219 9.957031 10.699219 C 10.0625 10.699219 10.167969 10.699219 10.277344 10.699219 C 10.5 10.699219 10.726562 10.699219 10.953125 10.699219 C 11.292969 10.699219 11.628906 10.699219 11.96875 10.699219 C 12.078125 10.699219 12.183594 10.699219 12.289062 10.699219 C 12.40625 10.699219 12.527344 10.699219 12.644531 10.699219 C 12.679688 10.699219 12.714844 10.699219 12.75 10.699219 C 12.78125 10.699219 12.816406 10.699219 12.847656 10.699219 C 12.875 10.699219 12.902344 10.699219 12.933594 10.699219 C 12.957031 10.695312 12.976562 10.691406 13 10.6875 C 13.066406 10.585938 13.070312 10.558594 13.070312 10.441406 C 13.070312 10.410156 13.070312 10.378906 13.070312 10.347656 C 13.070312 10.3125 13.070312 10.277344 13.070312 10.242188 C 13.070312 10.1875 13.070312 10.1875 13.070312 10.132812 C 13.070312 10.054688 13.070312 9.976562 13.070312 9.898438 C 13.070312 9.773438 13.070312 9.648438 13.070312 9.523438 C 13.070312 9.167969 13.070312 8.8125 13.070312 8.460938 C 13.070312 8.265625 13.070312 8.066406 13.070312 7.871094 C 13.070312 7.769531 13.070312 7.664062 13.070312 7.5625 C 13.070312 7.445312 13.070312 7.332031 13.070312 7.214844 C 13.070312 7.179688 13.070312 7.148438 13.070312 7.113281 C 13.070312 6.917969 13.101562 6.796875 13.226562 6.644531 C 13.351562 6.527344 13.453125 6.488281 13.625 6.488281 Z M 13.625 6.488281 "/>
<path style=" stroke:none;fill-rule:nonzero;fill:rgb(90.196079%,88.627452%,86.274511%);fill-opacity:1;" d="M 21.96875 11.0625 C 22.472656 11.460938 22.886719 12.03125 22.96875 12.6875 C 23.019531 13.34375 22.929688 13.902344 22.59375 14.46875 C 22.582031 14.488281 22.570312 14.511719 22.554688 14.53125 C 22.417969 14.753906 22.234375 14.929688 22.046875 15.109375 C 22 15.15625 21.953125 15.203125 21.90625 15.25 C 21.863281 15.292969 21.820312 15.335938 21.773438 15.378906 C 21.710938 15.445312 21.648438 15.515625 21.585938 15.585938 C 21.476562 15.710938 21.359375 15.832031 21.242188 15.949219 C 21.21875 15.972656 21.195312 15.996094 21.175781 16.015625 C 21.105469 16.085938 21.03125 16.15625 20.960938 16.226562 C 20.914062 16.277344 20.863281 16.328125 20.8125 16.375 C 20.683594 16.507812 20.554688 16.636719 20.425781 16.765625 C 20.292969 16.898438 20.160156 17.027344 20.027344 17.160156 C 19.769531 17.421875 19.507812 17.679688 19.25 17.9375 C 19.058594 17.777344 18.882812 17.605469 18.707031 17.429688 C 18.675781 17.398438 18.644531 17.367188 18.613281 17.335938 C 18.527344 17.25 18.4375 17.164062 18.351562 17.078125 C 18.300781 17.023438 18.246094 16.96875 18.191406 16.914062 C 18.003906 16.726562 17.8125 16.539062 17.625 16.351562 C 17.449219 16.175781 17.273438 16 17.097656 15.824219 C 16.949219 15.675781 16.796875 15.523438 16.648438 15.371094 C 16.558594 15.28125 16.464844 15.191406 16.375 15.101562 C 16.292969 15.019531 16.207031 14.933594 16.125 14.847656 C 16.09375 14.820312 16.0625 14.789062 16.03125 14.757812 C 15.988281 14.714844 15.945312 14.671875 15.902344 14.628906 C 15.878906 14.605469 15.855469 14.582031 15.832031 14.558594 C 15.78125 14.5 15.78125 14.5 15.78125 14.4375 C 15.761719 14.4375 15.738281 14.4375 15.71875 14.4375 C 15.515625 14.214844 15.378906 13.972656 15.28125 13.6875 C 15.273438 13.664062 15.265625 13.644531 15.257812 13.621094 C 15.140625 13.199219 15.203125 12.765625 15.398438 12.382812 C 15.546875 12.128906 15.710938 11.960938 15.96875 11.8125 C 16.007812 11.789062 16.007812 11.789062 16.046875 11.765625 C 16.367188 11.605469 16.746094 11.601562 17.089844 11.683594 C 17.359375 11.78125 17.578125 11.925781 17.789062 12.121094 C 17.863281 12.1875 17.902344 12.21875 18 12.25 C 18.210938 12.179688 18.320312 11.929688 18.433594 11.75 C 18.828125 11.160156 19.390625 10.785156 20.089844 10.636719 C 20.75 10.554688 21.417969 10.675781 21.96875 11.0625 Z M 21.96875 11.0625 "/>
<path style=" stroke:none;fill-rule:nonzero;fill:rgb(89.019608%,88.235295%,85.882354%);fill-opacity:1;" d="M 10.496094 21.554688 C 10.539062 21.554688 10.539062 21.554688 10.582031 21.554688 C 10.640625 21.554688 10.703125 21.554688 10.761719 21.554688 C 10.851562 21.554688 10.941406 21.550781 11.035156 21.550781 C 11.507812 21.546875 11.890625 21.601562 12.25 21.9375 C 12.566406 22.316406 12.628906 22.757812 12.601562 23.238281 C 12.5625 23.660156 12.402344 24.019531 12.074219 24.289062 C 11.960938 24.371094 11.847656 24.425781 11.71875 24.46875 C 11.6875 24.480469 11.65625 24.488281 11.625 24.5 C 11.484375 24.539062 11.34375 24.539062 11.199219 24.539062 C 11.171875 24.539062 11.144531 24.539062 11.113281 24.539062 C 11.054688 24.539062 10.996094 24.539062 10.9375 24.539062 C 10.847656 24.535156 10.757812 24.535156 10.667969 24.535156 C 10.609375 24.535156 10.550781 24.535156 10.496094 24.535156 C 10.46875 24.535156 10.441406 24.535156 10.410156 24.535156 C 10.222656 24.535156 10.222656 24.535156 10.1875 24.5 C 10.183594 24.410156 10.183594 24.320312 10.183594 24.230469 C 10.183594 24.203125 10.183594 24.171875 10.183594 24.144531 C 10.183594 24.050781 10.183594 23.957031 10.183594 23.863281 C 10.183594 23.796875 10.183594 23.730469 10.183594 23.667969 C 10.183594 23.53125 10.183594 23.394531 10.183594 23.257812 C 10.183594 23.082031 10.183594 22.90625 10.183594 22.730469 C 10.183594 22.597656 10.183594 22.460938 10.183594 22.328125 C 10.183594 22.265625 10.183594 22.199219 10.183594 22.132812 C 10.183594 22.042969 10.183594 21.953125 10.183594 21.863281 C 10.183594 21.835938 10.183594 21.808594 10.183594 21.78125 C 10.183594 21.519531 10.257812 21.558594 10.496094 21.554688 Z M 10.496094 21.554688 "/>
<path style=" stroke:none;fill-rule:nonzero;fill:rgb(89.803922%,88.627452%,86.274511%);fill-opacity:1;" d="M 16.5625 21.558594 C 16.601562 21.558594 16.601562 21.558594 16.644531 21.554688 C 16.671875 21.554688 16.703125 21.554688 16.730469 21.554688 C 16.761719 21.554688 16.792969 21.554688 16.820312 21.554688 C 16.886719 21.554688 16.949219 21.554688 17.011719 21.554688 C 17.109375 21.554688 17.203125 21.554688 17.300781 21.550781 C 17.363281 21.550781 17.421875 21.550781 17.484375 21.550781 C 17.515625 21.550781 17.542969 21.550781 17.570312 21.550781 C 17.871094 21.550781 18.125 21.632812 18.34375 21.84375 C 18.554688 22.109375 18.585938 22.386719 18.5625 22.71875 C 18.523438 23.011719 18.355469 23.203125 18.132812 23.390625 C 17.828125 23.585938 17.410156 23.539062 17.0625 23.53125 C 17.0625 23.574219 17.0625 23.574219 17.0625 23.621094 C 17.0625 23.726562 17.0625 23.835938 17.0625 23.945312 C 17.0625 23.988281 17.066406 24.035156 17.066406 24.082031 C 17.066406 24.152344 17.066406 24.21875 17.066406 24.285156 C 17.066406 24.34375 17.066406 24.34375 17.066406 24.40625 C 17.0625 24.5 17.0625 24.5 17.03125 24.53125 C 16.988281 24.535156 16.945312 24.535156 16.898438 24.535156 C 16.859375 24.535156 16.859375 24.535156 16.820312 24.535156 C 16.792969 24.535156 16.761719 24.535156 16.734375 24.535156 C 16.707031 24.535156 16.679688 24.535156 16.648438 24.535156 C 16.625 24.535156 16.597656 24.535156 16.570312 24.535156 C 16.542969 24.535156 16.519531 24.535156 16.496094 24.535156 C 16.4375 24.53125 16.4375 24.53125 16.40625 24.5 C 16.402344 24.410156 16.402344 24.320312 16.402344 24.230469 C 16.402344 24.203125 16.402344 24.171875 16.402344 24.144531 C 16.402344 24.050781 16.402344 23.957031 16.402344 23.863281 C 16.402344 23.796875 16.402344 23.730469 16.402344 23.667969 C 16.402344 23.53125 16.402344 23.394531 16.402344 23.257812 C 16.402344 23.082031 16.402344 22.90625 16.402344 22.730469 C 16.402344 22.597656 16.402344 22.460938 16.402344 22.328125 C 16.402344 22.265625 16.402344 22.199219 16.402344 22.132812 C 16.402344 22.042969 16.402344 21.953125 16.402344 21.863281 C 16.402344 21.835938 16.402344 21.808594 16.402344 21.78125 C 16.402344 21.558594 16.402344 21.558594 16.5625 21.558594 Z M 16.5625 21.558594 "/>
<path style=" stroke:none;fill-rule:nonzero;fill:rgb(89.803922%,88.627452%,86.274511%);fill-opacity:1;" d="M 13.5625 21.5625 C 13.675781 21.558594 13.789062 21.554688 13.898438 21.554688 C 13.933594 21.550781 13.964844 21.550781 13.996094 21.546875 C 14.027344 21.546875 14.058594 21.546875 14.089844 21.546875 C 14.117188 21.546875 14.148438 21.546875 14.175781 21.542969 C 14.25 21.5625 14.25 21.5625 14.296875 21.628906 C 14.34375 21.71875 14.378906 21.804688 14.410156 21.898438 C 14.421875 21.933594 14.433594 21.972656 14.445312 22.007812 C 14.460938 22.046875 14.472656 22.085938 14.488281 22.125 C 14.5 22.164062 14.515625 22.207031 14.527344 22.246094 C 14.566406 22.355469 14.601562 22.460938 14.636719 22.570312 C 14.695312 22.738281 14.753906 22.910156 14.8125 23.078125 C 14.824219 23.121094 14.839844 23.160156 14.855469 23.203125 C 14.960938 23.519531 15.074219 23.832031 15.199219 24.144531 C 15.210938 24.171875 15.21875 24.203125 15.230469 24.230469 C 15.242188 24.253906 15.25 24.277344 15.261719 24.304688 C 15.28125 24.375 15.28125 24.375 15.28125 24.53125 C 15.074219 24.53125 14.867188 24.53125 14.65625 24.53125 C 14.53125 24.25 14.53125 24.25 14.4375 23.96875 C 14.097656 23.957031 13.757812 23.949219 13.40625 23.9375 C 13.375 24.050781 13.34375 24.164062 13.3125 24.28125 C 13.28125 24.363281 13.25 24.445312 13.21875 24.53125 C 13.011719 24.53125 12.804688 24.53125 12.59375 24.53125 C 12.59375 24.359375 12.621094 24.246094 12.675781 24.089844 C 12.683594 24.066406 12.695312 24.042969 12.703125 24.015625 C 12.730469 23.9375 12.761719 23.855469 12.789062 23.773438 C 12.820312 23.691406 12.847656 23.605469 12.878906 23.523438 C 12.898438 23.464844 12.921875 23.40625 12.941406 23.351562 C 13.042969 23.066406 13.140625 22.78125 13.234375 22.496094 C 13.34375 22.183594 13.449219 21.871094 13.5625 21.5625 Z M 13.5625 21.5625 "/>
<path style=" stroke:none;fill-rule:nonzero;fill:rgb(90.196079%,89.411765%,87.058824%);fill-opacity:1;" d="M 25.21875 21.628906 C 25.417969 21.753906 25.539062 21.960938 25.59375 22.1875 C 25.601562 22.289062 25.601562 22.289062 25.59375 22.375 C 25.507812 22.460938 25.445312 22.453125 25.320312 22.460938 C 25.117188 22.457031 25.117188 22.457031 25.023438 22.378906 C 24.96875 22.304688 24.921875 22.230469 24.875 22.15625 C 24.75 22.042969 24.621094 22.050781 24.460938 22.054688 C 24.371094 22.0625 24.300781 22.085938 24.21875 22.125 C 24.210938 22.175781 24.203125 22.222656 24.195312 22.273438 C 24.191406 22.300781 24.1875 22.328125 24.183594 22.355469 C 24.179688 22.441406 24.179688 22.441406 24.234375 22.503906 C 24.328125 22.574219 24.421875 22.617188 24.53125 22.65625 C 24.550781 22.664062 24.574219 22.671875 24.59375 22.679688 C 24.722656 22.730469 24.847656 22.769531 24.976562 22.8125 C 25.242188 22.894531 25.46875 23.050781 25.625 23.28125 C 25.722656 23.476562 25.71875 23.71875 25.667969 23.929688 C 25.585938 24.152344 25.464844 24.335938 25.257812 24.457031 C 24.890625 24.625 24.46875 24.660156 24.078125 24.546875 C 23.824219 24.449219 23.621094 24.277344 23.511719 24.023438 C 23.472656 23.910156 23.453125 23.808594 23.46875 23.6875 C 23.539062 23.617188 23.707031 23.636719 23.808594 23.636719 C 23.921875 23.636719 23.980469 23.640625 24.074219 23.714844 C 24.128906 23.789062 24.128906 23.789062 24.175781 23.867188 C 24.238281 23.96875 24.296875 23.996094 24.40625 24.03125 C 24.601562 24.050781 24.730469 24.015625 24.90625 23.9375 C 24.984375 23.859375 24.984375 23.820312 24.988281 23.710938 C 24.992188 23.679688 24.992188 23.648438 24.996094 23.621094 C 24.960938 23.5 24.902344 23.46875 24.792969 23.410156 C 24.664062 23.351562 24.53125 23.308594 24.394531 23.265625 C 24.066406 23.164062 23.757812 23.054688 23.5625 22.75 C 23.460938 22.542969 23.460938 22.265625 23.523438 22.042969 C 23.585938 21.914062 23.671875 21.816406 23.78125 21.71875 C 23.804688 21.699219 23.824219 21.675781 23.847656 21.65625 C 24.261719 21.375 24.789062 21.398438 25.21875 21.628906 Z M 25.21875 21.628906 "/>
<path style=" stroke:none;fill-rule:nonzero;fill:rgb(89.803922%,89.019608%,86.666667%);fill-opacity:1;" d="M 21.03125 21.558594 C 21.054688 21.558594 21.082031 21.558594 21.109375 21.558594 C 21.132812 21.558594 21.160156 21.558594 21.1875 21.558594 C 21.226562 21.558594 21.226562 21.558594 21.265625 21.558594 C 21.292969 21.558594 21.316406 21.558594 21.34375 21.558594 C 21.367188 21.558594 21.390625 21.558594 21.414062 21.558594 C 21.46875 21.5625 21.46875 21.5625 21.5 21.59375 C 21.503906 21.65625 21.503906 21.71875 21.503906 21.785156 C 21.503906 21.824219 21.503906 21.863281 21.507812 21.90625 C 21.507812 21.929688 21.507812 21.949219 21.507812 21.972656 C 21.507812 22.042969 21.507812 22.109375 21.507812 22.179688 C 21.511719 22.375 21.511719 22.566406 21.511719 22.761719 C 21.511719 22.882812 21.515625 23 21.515625 23.121094 C 21.515625 23.164062 21.515625 23.210938 21.515625 23.253906 C 21.515625 23.320312 21.515625 23.382812 21.519531 23.445312 C 21.519531 23.480469 21.519531 23.519531 21.519531 23.554688 C 21.53125 23.667969 21.570312 23.746094 21.625 23.84375 C 21.625 23.863281 21.625 23.886719 21.625 23.90625 C 21.820312 24 22.078125 24.015625 22.285156 23.945312 C 22.394531 23.878906 22.433594 23.804688 22.46875 23.6875 C 22.480469 23.585938 22.480469 23.585938 22.476562 23.476562 C 22.480469 23.449219 22.480469 23.449219 22.480469 23.417969 C 22.480469 23.347656 22.480469 23.28125 22.480469 23.214844 C 22.480469 23.167969 22.480469 23.121094 22.480469 23.074219 C 22.484375 22.953125 22.484375 22.832031 22.484375 22.707031 C 22.488281 22.511719 22.488281 22.316406 22.492188 22.117188 C 22.492188 22.050781 22.492188 21.980469 22.492188 21.914062 C 22.492188 21.871094 22.496094 21.828125 22.496094 21.785156 C 22.496094 21.730469 22.496094 21.730469 22.496094 21.675781 C 22.5 21.59375 22.5 21.59375 22.53125 21.5625 C 22.574219 21.558594 22.621094 21.558594 22.664062 21.558594 C 22.703125 21.558594 22.703125 21.558594 22.746094 21.558594 C 22.773438 21.558594 22.800781 21.558594 22.828125 21.5625 C 22.859375 21.5625 22.886719 21.5625 22.914062 21.5625 C 22.984375 21.5625 23.054688 21.5625 23.125 21.5625 C 23.167969 21.648438 23.160156 21.714844 23.160156 21.808594 C 23.160156 21.847656 23.160156 21.886719 23.164062 21.925781 C 23.164062 21.96875 23.164062 22.011719 23.164062 22.054688 C 23.164062 22.097656 23.164062 22.144531 23.164062 22.1875 C 23.164062 22.277344 23.164062 22.371094 23.164062 22.464844 C 23.164062 22.582031 23.164062 22.699219 23.164062 22.816406 C 23.167969 22.90625 23.167969 22.996094 23.167969 23.085938 C 23.167969 23.128906 23.167969 23.171875 23.167969 23.21875 C 23.171875 23.617188 23.136719 23.992188 22.859375 24.300781 C 22.585938 24.566406 22.253906 24.582031 21.890625 24.578125 C 21.589844 24.570312 21.355469 24.511719 21.125 24.304688 C 20.925781 24.082031 20.871094 23.824219 20.871094 23.535156 C 20.871094 23.515625 20.871094 23.492188 20.871094 23.472656 C 20.871094 23.402344 20.871094 23.332031 20.871094 23.265625 C 20.871094 23.214844 20.871094 23.167969 20.871094 23.121094 C 20.871094 23.019531 20.871094 22.917969 20.871094 22.820312 C 20.871094 22.691406 20.871094 22.5625 20.871094 22.433594 C 20.871094 22.332031 20.871094 22.234375 20.871094 22.132812 C 20.871094 22.085938 20.871094 22.039062 20.871094 21.992188 C 20.871094 21.925781 20.871094 21.859375 20.871094 21.792969 C 20.871094 21.753906 20.871094 21.71875 20.871094 21.679688 C 20.878906 21.546875 20.914062 21.558594 21.03125 21.558594 Z M 21.03125 21.558594 "/>
<path style=" stroke:none;fill-rule:nonzero;fill:rgb(89.411765%,88.235295%,85.882354%);fill-opacity:1;" d="M 6.417969 21.554688 C 6.460938 21.550781 6.460938 21.550781 6.5 21.550781 C 6.539062 21.550781 6.539062 21.550781 6.582031 21.550781 C 6.605469 21.546875 6.628906 21.546875 6.652344 21.546875 C 6.746094 21.570312 6.761719 21.609375 6.8125 21.6875 C 6.839844 21.757812 6.839844 21.757812 6.867188 21.835938 C 6.878906 21.878906 6.878906 21.878906 6.894531 21.921875 C 6.90625 21.953125 6.914062 21.984375 6.925781 22.019531 C 6.9375 22.050781 6.945312 22.082031 6.957031 22.117188 C 6.992188 22.222656 7.023438 22.328125 7.058594 22.429688 C 7.082031 22.5 7.101562 22.570312 7.125 22.640625 C 7.15625 22.738281 7.191406 22.839844 7.222656 22.941406 C 7.304688 23.191406 7.386719 23.441406 7.46875 23.6875 C 7.53125 23.59375 7.558594 23.515625 7.59375 23.410156 C 7.605469 23.371094 7.617188 23.335938 7.632812 23.296875 C 7.636719 23.277344 7.644531 23.253906 7.652344 23.234375 C 7.671875 23.171875 7.691406 23.109375 7.710938 23.046875 C 7.769531 22.867188 7.828125 22.6875 7.886719 22.507812 C 7.921875 22.394531 7.957031 22.285156 7.992188 22.175781 C 8.003906 22.132812 8.019531 22.09375 8.03125 22.050781 C 8.050781 21.992188 8.070312 21.933594 8.089844 21.875 C 8.105469 21.824219 8.105469 21.824219 8.121094 21.773438 C 8.15625 21.691406 8.1875 21.628906 8.25 21.5625 C 8.3125 21.546875 8.3125 21.546875 8.382812 21.550781 C 8.417969 21.550781 8.417969 21.550781 8.457031 21.550781 C 8.484375 21.550781 8.507812 21.550781 8.535156 21.554688 C 8.5625 21.554688 8.585938 21.554688 8.613281 21.554688 C 8.808594 21.558594 8.808594 21.558594 8.84375 21.59375 C 8.832031 21.761719 8.796875 21.902344 8.738281 22.0625 C 8.730469 22.082031 8.722656 22.105469 8.714844 22.125 C 8.691406 22.195312 8.664062 22.261719 8.640625 22.328125 C 8.621094 22.378906 8.605469 22.425781 8.585938 22.476562 C 8.558594 22.554688 8.53125 22.632812 8.5 22.710938 C 8.421875 22.929688 8.34375 23.148438 8.261719 23.367188 C 8.238281 23.433594 8.214844 23.5 8.191406 23.566406 C 8.15625 23.667969 8.121094 23.765625 8.082031 23.867188 C 8.050781 23.960938 8.015625 24.054688 7.984375 24.148438 C 7.972656 24.175781 7.964844 24.203125 7.953125 24.230469 C 7.945312 24.257812 7.933594 24.285156 7.925781 24.308594 C 7.917969 24.332031 7.910156 24.355469 7.898438 24.378906 C 7.875 24.4375 7.875 24.4375 7.8125 24.53125 C 7.707031 24.550781 7.59375 24.546875 7.484375 24.546875 C 7.441406 24.546875 7.441406 24.546875 7.394531 24.550781 C 7.351562 24.550781 7.351562 24.550781 7.308594 24.550781 C 7.28125 24.550781 7.253906 24.550781 7.226562 24.550781 C 7.15625 24.53125 7.15625 24.53125 7.105469 24.464844 C 7.058594 24.367188 7.019531 24.269531 6.984375 24.167969 C 6.976562 24.144531 6.96875 24.125 6.960938 24.105469 C 6.9375 24.035156 6.910156 23.964844 6.886719 23.898438 C 6.871094 23.847656 6.851562 23.796875 6.835938 23.75 C 6.796875 23.644531 6.757812 23.535156 6.71875 23.429688 C 6.675781 23.304688 6.628906 23.179688 6.585938 23.050781 C 6.523438 22.882812 6.464844 22.710938 6.402344 22.539062 C 6.378906 22.472656 6.355469 22.40625 6.332031 22.339844 C 6.296875 22.242188 6.261719 22.148438 6.230469 22.054688 C 6.21875 22.027344 6.210938 21.996094 6.199219 21.96875 C 6.191406 21.941406 6.179688 21.914062 6.171875 21.886719 C 6.160156 21.851562 6.160156 21.851562 6.144531 21.816406 C 6.121094 21.742188 6.105469 21.671875 6.09375 21.59375 C 6.164062 21.523438 6.324219 21.554688 6.417969 21.554688 Z M 6.417969 21.554688 "/>
<path style=" stroke:none;fill-rule:nonzero;fill:rgb(89.803922%,88.627452%,86.666667%);fill-opacity:1;" d="M 19.039062 21.558594 C 19.078125 21.558594 19.078125 21.558594 19.117188 21.558594 C 19.160156 21.558594 19.160156 21.558594 19.203125 21.558594 C 19.230469 21.558594 19.257812 21.558594 19.289062 21.558594 C 19.3125 21.558594 19.339844 21.558594 19.367188 21.558594 C 19.394531 21.558594 19.417969 21.558594 19.441406 21.558594 C 19.5 21.5625 19.5 21.5625 19.53125 21.59375 C 19.535156 21.667969 19.535156 21.742188 19.535156 21.816406 C 19.535156 21.839844 19.535156 21.863281 19.535156 21.886719 C 19.535156 21.960938 19.535156 22.039062 19.535156 22.117188 C 19.535156 22.167969 19.535156 22.222656 19.535156 22.277344 C 19.535156 22.417969 19.535156 22.554688 19.535156 22.695312 C 19.53125 22.839844 19.53125 22.984375 19.53125 23.125 C 19.53125 23.40625 19.53125 23.6875 19.53125 23.96875 C 19.5625 23.96875 19.59375 23.96875 19.625 23.96875 C 19.742188 23.96875 19.855469 23.96875 19.96875 23.96875 C 20.019531 23.96875 20.070312 23.964844 20.121094 23.964844 C 20.191406 23.964844 20.261719 23.964844 20.332031 23.964844 C 20.355469 23.964844 20.378906 23.964844 20.402344 23.964844 C 20.457031 23.964844 20.507812 23.96875 20.5625 23.96875 C 20.59375 24 20.59375 24 20.597656 24.121094 C 20.597656 24.167969 20.597656 24.21875 20.59375 24.265625 C 20.59375 24.292969 20.59375 24.316406 20.59375 24.34375 C 20.59375 24.40625 20.59375 24.46875 20.59375 24.53125 C 20.355469 24.53125 20.113281 24.53125 19.875 24.53125 C 19.792969 24.53125 19.710938 24.535156 19.628906 24.535156 C 19.511719 24.535156 19.394531 24.535156 19.277344 24.535156 C 19.242188 24.535156 19.203125 24.535156 19.167969 24.535156 C 19.132812 24.535156 19.097656 24.535156 19.066406 24.535156 C 19.035156 24.535156 19.003906 24.535156 18.972656 24.535156 C 18.90625 24.53125 18.90625 24.53125 18.875 24.5 C 18.871094 24.410156 18.871094 24.320312 18.871094 24.230469 C 18.871094 24.203125 18.871094 24.171875 18.871094 24.144531 C 18.871094 24.050781 18.871094 23.957031 18.871094 23.863281 C 18.871094 23.796875 18.871094 23.730469 18.871094 23.667969 C 18.871094 23.53125 18.871094 23.394531 18.871094 23.257812 C 18.871094 23.082031 18.871094 22.90625 18.871094 22.730469 C 18.871094 22.597656 18.871094 22.460938 18.871094 22.328125 C 18.871094 22.265625 18.871094 22.199219 18.871094 22.132812 C 18.871094 22.042969 18.871094 21.953125 18.871094 21.863281 C 18.871094 21.835938 18.871094 21.808594 18.871094 21.78125 C 18.871094 21.558594 18.871094 21.558594 19.039062 21.558594 Z M 19.039062 21.558594 "/>
<path style=" stroke:none;fill-rule:nonzero;fill:rgb(90.196079%,89.019608%,86.666667%);fill-opacity:1;" d="M 9.28125 21.558594 C 9.304688 21.558594 9.332031 21.558594 9.359375 21.558594 C 9.382812 21.558594 9.410156 21.558594 9.4375 21.558594 C 9.476562 21.558594 9.476562 21.558594 9.515625 21.558594 C 9.542969 21.558594 9.566406 21.558594 9.59375 21.558594 C 9.617188 21.558594 9.640625 21.558594 9.664062 21.558594 C 9.71875 21.5625 9.71875 21.5625 9.75 21.59375 C 9.753906 21.683594 9.753906 21.777344 9.753906 21.867188 C 9.753906 21.894531 9.753906 21.925781 9.753906 21.953125 C 9.753906 22.050781 9.753906 22.144531 9.753906 22.238281 C 9.753906 22.304688 9.753906 22.371094 9.753906 22.4375 C 9.753906 22.609375 9.753906 22.785156 9.753906 22.957031 C 9.75 23.132812 9.75 23.3125 9.75 23.488281 C 9.75 23.835938 9.75 24.183594 9.75 24.53125 C 9.652344 24.53125 9.554688 24.53125 9.453125 24.53125 C 9.425781 24.535156 9.398438 24.535156 9.371094 24.535156 C 9.328125 24.535156 9.328125 24.535156 9.289062 24.535156 C 9.265625 24.535156 9.238281 24.535156 9.214844 24.535156 C 9.15625 24.53125 9.15625 24.53125 9.125 24.5 C 9.121094 24.410156 9.121094 24.320312 9.121094 24.230469 C 9.121094 24.203125 9.121094 24.171875 9.121094 24.144531 C 9.121094 24.050781 9.121094 23.957031 9.121094 23.863281 C 9.121094 23.796875 9.121094 23.730469 9.121094 23.667969 C 9.121094 23.53125 9.121094 23.394531 9.121094 23.257812 C 9.121094 23.082031 9.121094 22.90625 9.121094 22.730469 C 9.121094 22.597656 9.121094 22.460938 9.121094 22.328125 C 9.121094 22.265625 9.121094 22.199219 9.121094 22.132812 C 9.121094 22.042969 9.121094 21.953125 9.121094 21.863281 C 9.121094 21.835938 9.121094 21.808594 9.121094 21.78125 C 9.121094 21.558594 9.121094 21.558594 9.28125 21.558594 Z M 9.28125 21.558594 "/>
<path style=" stroke:none;fill-rule:nonzero;fill:rgb(3.529412%,39.607844%,24.313726%);fill-opacity:1;" d="M 10.84375 22.15625 C 11.519531 22.15625 11.519531 22.15625 11.683594 22.304688 C 11.894531 22.527344 11.953125 22.726562 11.953125 23.023438 C 11.949219 23.054688 11.949219 23.082031 11.949219 23.109375 C 11.941406 23.386719 11.898438 23.582031 11.695312 23.78125 C 11.414062 24 11.234375 23.96875 10.84375 23.96875 C 10.84375 23.371094 10.84375 22.773438 10.84375 22.15625 Z M 10.84375 22.15625 "/>
<path style=" stroke:none;fill-rule:nonzero;fill:rgb(4.313726%,39.607844%,23.921569%);fill-opacity:1;" d="M 17.378906 22.082031 C 17.558594 22.085938 17.664062 22.117188 17.8125 22.21875 C 17.925781 22.339844 17.921875 22.445312 17.914062 22.605469 C 17.898438 22.753906 17.84375 22.816406 17.734375 22.910156 C 17.59375 22.984375 17.488281 22.984375 17.332031 22.976562 C 17.292969 22.976562 17.292969 22.976562 17.253906 22.976562 C 17.191406 22.972656 17.125 22.972656 17.0625 22.96875 C 17.0625 22.828125 17.0625 22.6875 17.058594 22.546875 C 17.058594 22.507812 17.058594 22.46875 17.058594 22.425781 C 17.058594 22.390625 17.058594 22.351562 17.058594 22.3125 C 17.058594 22.277344 17.058594 22.242188 17.058594 22.207031 C 17.066406 22.03125 17.234375 22.085938 17.378906 22.082031 Z M 17.378906 22.082031 "/>
<path style=" stroke:none;fill-rule:nonzero;fill:rgb(4.705882%,40.000001%,24.313726%);fill-opacity:1;" d="M 13.90625 22.375 C 13.96875 22.40625 13.96875 22.40625 14.003906 22.496094 C 14.015625 22.535156 14.03125 22.574219 14.042969 22.613281 C 14.050781 22.632812 14.058594 22.652344 14.0625 22.675781 C 14.078125 22.71875 14.09375 22.761719 14.105469 22.804688 C 14.128906 22.871094 14.152344 22.941406 14.171875 23.007812 C 14.28125 23.335938 14.28125 23.335938 14.28125 23.40625 C 14.054688 23.40625 13.828125 23.40625 13.59375 23.40625 C 13.617188 23.253906 13.636719 23.136719 13.679688 22.996094 C 13.691406 22.960938 13.703125 22.925781 13.714844 22.890625 C 13.726562 22.855469 13.738281 22.820312 13.75 22.785156 C 13.761719 22.75 13.773438 22.714844 13.785156 22.675781 C 13.871094 22.410156 13.871094 22.410156 13.90625 22.375 Z M 13.90625 22.375 "/>
<path style=" stroke:none;fill-rule:nonzero;fill:rgb(9.019608%,40.392157%,25.882354%);fill-opacity:1;" d="M 9.21875 15.625 C 9.707031 15.621094 10.191406 15.621094 10.679688 15.617188 C 10.90625 15.617188 11.132812 15.617188 11.355469 15.617188 C 11.554688 15.613281 11.75 15.613281 11.949219 15.613281 C 12.050781 15.613281 12.15625 15.613281 12.261719 15.613281 C 12.378906 15.609375 12.492188 15.609375 12.609375 15.609375 C 12.664062 15.609375 12.664062 15.609375 12.714844 15.609375 C 12.746094 15.609375 12.777344 15.609375 12.8125 15.609375 C 12.839844 15.609375 12.867188 15.609375 12.894531 15.609375 C 12.996094 15.628906 13.03125 15.667969 13.09375 15.75 C 13.109375 15.824219 13.109375 15.824219 13.109375 15.902344 C 13.109375 15.933594 13.109375 15.964844 13.109375 15.996094 C 13.109375 16.03125 13.109375 16.066406 13.109375 16.101562 C 13.109375 16.136719 13.109375 16.171875 13.109375 16.207031 C 13.109375 16.285156 13.109375 16.363281 13.109375 16.441406 C 13.109375 16.5625 13.109375 16.6875 13.109375 16.808594 C 13.113281 17.046875 13.113281 17.285156 13.113281 17.523438 C 13.109375 17.847656 13.113281 18.171875 13.113281 18.496094 C 13.113281 18.617188 13.113281 18.738281 13.113281 18.855469 C 13.113281 18.929688 13.113281 19.003906 13.113281 19.078125 C 13.113281 19.113281 13.113281 19.148438 13.113281 19.179688 C 13.113281 19.375 13.125 19.527344 13.265625 19.675781 C 13.289062 19.691406 13.289062 19.691406 13.3125 19.710938 C 13.40625 19.78125 13.40625 19.78125 13.46875 19.84375 C 13.40625 19.875 13.40625 19.875 13.34375 19.90625 C 13.324219 19.878906 13.308594 19.851562 13.289062 19.820312 C 13.246094 19.757812 13.203125 19.699219 13.152344 19.640625 C 13.007812 19.449219 13.023438 19.246094 13.023438 19.019531 C 13.023438 18.980469 13.023438 18.945312 13.023438 18.910156 C 13.023438 18.792969 13.023438 18.675781 13.023438 18.558594 C 13.023438 18.476562 13.023438 18.394531 13.027344 18.3125 C 13.027344 18.117188 13.027344 17.925781 13.027344 17.734375 C 13.027344 17.511719 13.027344 17.292969 13.027344 17.074219 C 13.027344 16.621094 13.03125 16.171875 13.03125 15.71875 C 12.941406 15.6875 12.878906 15.683594 12.785156 15.683594 C 12.753906 15.683594 12.722656 15.683594 12.691406 15.679688 C 12.65625 15.679688 12.621094 15.679688 12.585938 15.679688 C 12.550781 15.679688 12.511719 15.679688 12.476562 15.679688 C 12.355469 15.679688 12.234375 15.679688 12.113281 15.675781 C 12.03125 15.675781 11.949219 15.675781 11.863281 15.675781 C 11.667969 15.675781 11.472656 15.671875 11.273438 15.671875 C 11.050781 15.667969 10.828125 15.667969 10.601562 15.667969 C 10.140625 15.664062 9.679688 15.660156 9.21875 15.65625 C 9.21875 15.644531 9.21875 15.636719 9.21875 15.625 Z M 9.21875 15.625 "/>
<path style=" stroke:none;fill-rule:nonzero;fill:rgb(2.352941%,35.686275%,19.215687%);fill-opacity:1;" d="M 18.84375 21.59375 C 18.855469 21.59375 18.863281 21.59375 18.875 21.59375 C 18.875 22.554688 18.875 23.511719 18.875 24.5 C 18.863281 24.5 18.855469 24.5 18.84375 24.5 C 18.828125 23.601562 18.828125 23.601562 18.8125 22.6875 C 18.761719 22.730469 18.710938 22.769531 18.65625 22.8125 C 18.625 22.800781 18.59375 22.792969 18.5625 22.78125 C 18.5625 22.75 18.5625 22.722656 18.558594 22.691406 C 18.550781 22.453125 18.527344 22.257812 18.429688 22.035156 C 18.421875 22.011719 18.414062 21.992188 18.40625 21.96875 C 18.417969 21.949219 18.425781 21.925781 18.4375 21.90625 C 18.53125 22.054688 18.53125 22.054688 18.53125 22.125 C 18.550781 22.125 18.574219 22.125 18.59375 22.125 C 18.59375 22.105469 18.59375 22.082031 18.59375 22.0625 C 18.625 22.0625 18.65625 22.0625 18.6875 22.0625 C 18.699219 22 18.707031 21.9375 18.71875 21.875 C 18.75 21.875 18.78125 21.875 18.8125 21.875 C 18.824219 21.78125 18.832031 21.6875 18.84375 21.59375 Z M 18.84375 21.59375 "/>
<path style=" stroke:none;fill-rule:nonzero;fill:rgb(3.529412%,30.588236%,15.294118%);fill-opacity:1;" d="M 16.28125 16.3125 C 16.359375 16.328125 16.359375 16.328125 16.4375 16.34375 C 16.4375 16.375 16.4375 16.40625 16.4375 16.4375 C 16.480469 16.496094 16.480469 16.496094 16.539062 16.550781 C 16.574219 16.585938 16.574219 16.585938 16.609375 16.621094 C 16.632812 16.644531 16.660156 16.667969 16.683594 16.691406 C 16.707031 16.71875 16.734375 16.742188 16.757812 16.769531 C 16.839844 16.847656 16.917969 16.925781 17 17.007812 C 17.054688 17.058594 17.109375 17.113281 17.164062 17.167969 C 17.296875 17.300781 17.429688 17.429688 17.5625 17.5625 C 17.546875 17.59375 17.546875 17.59375 17.53125 17.625 C 17.367188 17.464844 17.207031 17.300781 17.042969 17.140625 C 16.964844 17.0625 16.890625 16.988281 16.816406 16.914062 C 16.726562 16.828125 16.640625 16.742188 16.554688 16.65625 C 16.515625 16.613281 16.515625 16.613281 16.472656 16.574219 C 16.445312 16.546875 16.421875 16.523438 16.394531 16.496094 C 16.375 16.476562 16.351562 16.453125 16.328125 16.429688 C 16.28125 16.375 16.28125 16.375 16.28125 16.3125 Z M 16.28125 16.3125 "/>
<path style=" stroke:none;fill-rule:nonzero;fill:rgb(85.490197%,83.92157%,81.176472%);fill-opacity:1;" d="M 4.125 18.5625 C 4.136719 18.5625 4.144531 18.5625 4.15625 18.5625 C 4.15625 19.242188 4.15625 19.921875 4.15625 20.625 C 4.144531 20.605469 4.136719 20.582031 4.125 20.5625 C 4.105469 20.5625 4.082031 20.5625 4.0625 20.5625 C 4.046875 20.59375 4.046875 20.59375 4.03125 20.625 C 4.042969 20.554688 4.050781 20.480469 4.0625 20.40625 C 4.082031 20.40625 4.105469 20.40625 4.125 20.40625 C 4.125 20.085938 4.125 19.765625 4.125 19.4375 C 4.105469 19.425781 4.082031 19.417969 4.0625 19.40625 C 4.082031 19.40625 4.105469 19.40625 4.125 19.40625 C 4.125 19.128906 4.125 18.847656 4.125 18.5625 Z M 4.125 18.5625 "/>
<path style=" stroke:none;fill-rule:nonzero;fill:rgb(5.490196%,31.764707%,15.686275%);fill-opacity:1;" d="M 25.875 26.9375 C 25.894531 26.949219 25.917969 26.957031 25.9375 26.96875 C 25.703125 27.097656 25.472656 27.203125 25.214844 27.28125 C 25.191406 27.289062 25.167969 27.296875 25.148438 27.300781 C 24.953125 27.355469 24.953125 27.355469 24.84375 27.3125 C 24.894531 27.300781 24.945312 27.292969 25 27.28125 C 25.011719 27.25 25.019531 27.21875 25.03125 27.1875 C 25.0625 27.175781 25.09375 27.167969 25.125 27.15625 C 25.144531 27.175781 25.167969 27.199219 25.1875 27.21875 C 25.265625 27.191406 25.347656 27.160156 25.425781 27.132812 C 25.449219 27.121094 25.46875 27.113281 25.492188 27.105469 C 25.597656 27.066406 25.695312 27.027344 25.792969 26.976562 C 25.820312 26.964844 25.847656 26.949219 25.875 26.9375 Z M 25.875 26.9375 "/>
<path style=" stroke:none;fill-rule:nonzero;fill:rgb(4.705882%,34.117648%,18.039216%);fill-opacity:1;" d="M 24.3125 22.0625 C 24.34375 22.074219 24.375 22.082031 24.40625 22.09375 C 24.386719 22.09375 24.363281 22.09375 24.34375 22.09375 C 24.355469 22.136719 24.363281 22.175781 24.375 22.21875 C 24.34375 22.230469 24.3125 22.238281 24.28125 22.25 C 24.261719 22.238281 24.238281 22.230469 24.21875 22.21875 C 24.207031 22.351562 24.207031 22.351562 24.25 22.46875 C 24.367188 22.550781 24.492188 22.605469 24.625 22.65625 C 24.53125 22.6875 24.53125 22.6875 24.457031 22.660156 C 24.429688 22.644531 24.402344 22.632812 24.375 22.617188 C 24.34375 22.601562 24.316406 22.589844 24.289062 22.574219 C 24.21875 22.53125 24.21875 22.53125 24.15625 22.4375 C 24.144531 22.316406 24.148438 22.226562 24.21875 22.125 C 24.25 22.105469 24.28125 22.082031 24.3125 22.0625 Z M 24.3125 22.0625 "/>
<path style=" stroke:none;fill-rule:nonzero;fill:rgb(3.137255%,34.117648%,18.82353%);fill-opacity:1;" d="M 14.1875 23.15625 C 14.25 23.25 14.25 23.25 14.28125 23.40625 C 14.054688 23.40625 13.828125 23.40625 13.59375 23.40625 C 13.605469 23.386719 13.613281 23.363281 13.625 23.34375 C 13.820312 23.34375 14.015625 23.34375 14.21875 23.34375 C 14.207031 23.28125 14.199219 23.21875 14.1875 23.15625 Z M 14.1875 23.15625 "/>
<path style=" stroke:none;fill-rule:nonzero;fill:rgb(91.764706%,92.54902%,90.980393%);fill-opacity:1;" d="M 11.46875 22.15625 C 11.582031 22.1875 11.667969 22.222656 11.757812 22.296875 C 11.835938 22.378906 11.835938 22.378906 11.9375 22.40625 C 11.960938 22.46875 11.960938 22.46875 11.96875 22.53125 C 11.949219 22.53125 11.925781 22.53125 11.90625 22.53125 C 11.917969 22.582031 11.925781 22.632812 11.9375 22.6875 C 11.882812 22.617188 11.832031 22.546875 11.785156 22.46875 C 11.71875 22.375 11.65625 22.316406 11.5625 22.25 C 11.53125 22.21875 11.5 22.1875 11.46875 22.15625 Z M 11.46875 22.15625 "/>
<path style=" stroke:none;fill-rule:nonzero;fill:rgb(7.843138%,34.901962%,19.607843%);fill-opacity:1;" d="M 8.25 23.375 C 8.269531 23.386719 8.292969 23.394531 8.3125 23.40625 C 8.3125 23.425781 8.3125 23.449219 8.3125 23.46875 C 8.292969 23.46875 8.269531 23.46875 8.25 23.46875 C 8.230469 23.582031 8.207031 23.695312 8.1875 23.8125 C 8.167969 23.8125 8.144531 23.8125 8.125 23.8125 C 8.121094 23.832031 8.117188 23.851562 8.113281 23.871094 C 8.109375 23.898438 8.101562 23.925781 8.097656 23.953125 C 8.09375 23.976562 8.085938 24.003906 8.082031 24.027344 C 8.074219 24.050781 8.070312 24.070312 8.0625 24.09375 C 8.042969 24.105469 8.019531 24.113281 8 24.125 C 8.019531 23.953125 8.0625 23.804688 8.125 23.644531 C 8.132812 23.621094 8.140625 23.597656 8.152344 23.574219 C 8.214844 23.410156 8.214844 23.410156 8.25 23.375 Z M 8.25 23.375 "/>
<path style=" stroke:none;fill-rule:nonzero;fill:rgb(1.176471%,38.82353%,23.137255%);fill-opacity:1;" d="M 19.5625 22.84375 C 19.664062 22.996094 19.664062 22.996094 19.644531 23.105469 C 19.636719 23.132812 19.632812 23.160156 19.625 23.1875 C 19.621094 23.246094 19.617188 23.308594 19.613281 23.367188 C 19.613281 23.398438 19.613281 23.433594 19.609375 23.46875 C 19.609375 23.503906 19.609375 23.535156 19.609375 23.570312 C 19.605469 23.605469 19.605469 23.640625 19.601562 23.679688 C 19.601562 23.765625 19.597656 23.851562 19.59375 23.9375 C 19.582031 23.9375 19.574219 23.9375 19.5625 23.9375 C 19.5625 23.578125 19.5625 23.214844 19.5625 22.84375 Z M 19.5625 22.84375 "/>
<path style=" stroke:none;fill-rule:nonzero;fill:rgb(4.705882%,35.294119%,19.607843%);fill-opacity:1;" d="M 23.59375 22.8125 C 23.609375 22.824219 23.625 22.835938 23.636719 22.847656 C 23.792969 22.96875 23.953125 23.066406 24.125 23.15625 C 24.023438 23.191406 24.003906 23.183594 23.90625 23.15625 C 23.863281 23.15625 23.824219 23.15625 23.78125 23.15625 C 23.769531 23.121094 23.769531 23.121094 23.757812 23.085938 C 23.714844 22.992188 23.664062 22.945312 23.59375 22.875 C 23.59375 22.855469 23.59375 22.832031 23.59375 22.8125 Z M 23.59375 22.8125 "/>
<path style=" stroke:none;fill-rule:nonzero;fill:rgb(6.27451%,46.27451%,31.764707%);fill-opacity:1;" d="M 18.28125 9.96875 C 18.292969 9.96875 18.300781 9.96875 18.3125 9.96875 C 18.3125 9.988281 18.3125 10.007812 18.3125 10.023438 C 18.316406 10.109375 18.320312 10.191406 18.324219 10.277344 C 18.324219 10.304688 18.324219 10.335938 18.328125 10.367188 C 18.328125 10.394531 18.328125 10.421875 18.332031 10.449219 C 18.332031 10.476562 18.332031 10.503906 18.332031 10.527344 C 18.339844 10.601562 18.339844 10.601562 18.40625 10.65625 C 18.363281 10.738281 18.324219 10.824219 18.28125 10.90625 C 18.28125 10.597656 18.28125 10.289062 18.28125 9.96875 Z M 18.28125 9.96875 "/>
<path style=" stroke:none;fill-rule:nonzero;fill:rgb(9.019608%,35.294119%,20.784314%);fill-opacity:1;" d="M 16.28125 16.3125 C 16.359375 16.328125 16.359375 16.328125 16.4375 16.34375 C 16.4375 16.375 16.4375 16.40625 16.4375 16.4375 C 16.5 16.503906 16.558594 16.566406 16.625 16.632812 C 16.644531 16.648438 16.660156 16.664062 16.679688 16.683594 C 16.722656 16.726562 16.769531 16.769531 16.8125 16.8125 C 16.800781 16.832031 16.792969 16.855469 16.78125 16.875 C 16.699219 16.792969 16.613281 16.710938 16.53125 16.628906 C 16.507812 16.605469 16.484375 16.582031 16.460938 16.558594 C 16.4375 16.535156 16.414062 16.511719 16.390625 16.492188 C 16.371094 16.46875 16.347656 16.449219 16.328125 16.429688 C 16.28125 16.375 16.28125 16.375 16.28125 16.3125 Z M 16.28125 16.3125 "/>
<path style=" stroke:none;fill-rule:nonzero;fill:rgb(85.882354%,84.313726%,81.568629%);fill-opacity:1;" d="M 18.65625 27.53125 C 18.914062 27.53125 19.171875 27.53125 19.4375 27.53125 C 19.4375 27.542969 19.4375 27.550781 19.4375 27.5625 C 19.410156 27.5625 19.382812 27.566406 19.351562 27.566406 C 19.316406 27.570312 19.28125 27.570312 19.242188 27.574219 C 19.1875 27.578125 19.1875 27.578125 19.132812 27.582031 C 19.039062 27.59375 18.988281 27.613281 18.90625 27.65625 C 18.886719 27.644531 18.863281 27.636719 18.84375 27.625 C 18.84375 27.605469 18.84375 27.582031 18.84375 27.5625 C 18.78125 27.5625 18.71875 27.5625 18.65625 27.5625 C 18.65625 27.550781 18.65625 27.542969 18.65625 27.53125 Z M 18.65625 27.53125 "/>
<path style=" stroke:none;fill-rule:nonzero;fill:rgb(4.313726%,34.901962%,18.82353%);fill-opacity:1;" d="M 22.9375 24.1875 C 22.9375 24.304688 22.910156 24.324219 22.828125 24.40625 C 22.75 24.496094 22.75 24.496094 22.6875 24.59375 C 22.667969 24.582031 22.644531 24.574219 22.625 24.5625 C 22.636719 24.542969 22.644531 24.519531 22.65625 24.5 C 22.613281 24.511719 22.574219 24.519531 22.53125 24.53125 C 22.589844 24.46875 22.644531 24.425781 22.71875 24.375 C 22.800781 24.320312 22.867188 24.261719 22.9375 24.1875 Z M 22.9375 24.1875 "/>
<path style=" stroke:none;fill-rule:nonzero;fill:rgb(86.274511%,85.490197%,83.137256%);fill-opacity:1;" d="M 9.6875 22.34375 C 9.699219 22.34375 9.707031 22.34375 9.71875 22.34375 C 9.71875 22.582031 9.71875 22.816406 9.71875 23.0625 C 9.699219 23.050781 9.675781 23.042969 9.65625 23.03125 C 9.65625 22.992188 9.65625 22.953125 9.65625 22.914062 C 9.660156 22.839844 9.65625 22.785156 9.640625 22.710938 C 9.621094 22.632812 9.636719 22.578125 9.65625 22.5 C 9.660156 22.472656 9.667969 22.441406 9.671875 22.414062 C 9.679688 22.390625 9.683594 22.367188 9.6875 22.34375 Z M 9.6875 22.34375 "/>
<path style=" stroke:none;fill-rule:nonzero;fill:rgb(2.745098%,37.64706%,21.568628%);fill-opacity:1;" d="M 23 12.96875 C 23.011719 12.96875 23.019531 12.96875 23.03125 12.96875 C 23.03125 12.988281 23.035156 13.007812 23.035156 13.027344 C 23.039062 13.054688 23.039062 13.078125 23.042969 13.105469 C 23.046875 13.128906 23.046875 13.15625 23.050781 13.183594 C 23.058594 13.257812 23.058594 13.257812 23.125 13.3125 C 23.089844 13.417969 23.058594 13.4375 22.96875 13.5 C 22.964844 13.320312 22.972656 13.148438 23 12.96875 Z M 23 12.96875 "/>
<path style=" stroke:none;fill-rule:nonzero;fill:rgb(9.019608%,45.09804%,30.588236%);fill-opacity:1;" d="M 7.65625 4.4375 C 7.644531 4.46875 7.636719 4.5 7.625 4.53125 C 7.605469 4.527344 7.582031 4.519531 7.5625 4.515625 C 7.441406 4.496094 7.339844 4.511719 7.21875 4.53125 C 7.21875 4.511719 7.21875 4.488281 7.21875 4.46875 C 7.1875 4.457031 7.15625 4.449219 7.125 4.4375 C 7.308594 4.402344 7.472656 4.414062 7.65625 4.4375 Z M 7.65625 4.4375 "/>
<path style=" stroke:none;fill-rule:nonzero;fill:rgb(11.372549%,46.27451%,32.941177%);fill-opacity:1;" d="M 8.125 4.3125 C 8.1875 4.3125 8.253906 4.3125 8.316406 4.3125 C 8.351562 4.308594 8.386719 4.308594 8.425781 4.308594 C 8.527344 4.3125 8.621094 4.324219 8.71875 4.34375 C 8.601562 4.421875 8.480469 4.417969 8.34375 4.40625 C 8.269531 4.390625 8.199219 4.367188 8.125 4.34375 C 8.125 4.332031 8.125 4.324219 8.125 4.3125 Z M 8.125 4.3125 "/>
<path style=" stroke:none;fill-rule:nonzero;fill:rgb(0.784314%,30.588236%,13.333334%);fill-opacity:1;" d="M 15.28125 24.375 C 15.292969 24.375 15.300781 24.375 15.3125 24.375 C 15.347656 24.585938 15.347656 24.585938 15.3125 24.65625 C 15.292969 24.65625 15.269531 24.65625 15.25 24.65625 C 15.25 24.636719 15.25 24.613281 15.25 24.59375 C 15.054688 24.59375 14.859375 24.59375 14.65625 24.59375 C 14.65625 24.582031 14.65625 24.574219 14.65625 24.5625 C 14.851562 24.550781 15.046875 24.542969 15.25 24.53125 C 15.261719 24.480469 15.269531 24.429688 15.28125 24.375 Z M 15.28125 24.375 "/>
<path style=" stroke:none;fill-rule:nonzero;fill:rgb(92.156863%,92.941177%,90.980393%);fill-opacity:1;" d="M 12.21875 21.96875 C 12.347656 22.082031 12.449219 22.207031 12.5 22.375 C 12.488281 22.445312 12.488281 22.445312 12.46875 22.5 C 12.457031 22.449219 12.449219 22.398438 12.4375 22.34375 C 12.417969 22.34375 12.394531 22.34375 12.375 22.34375 C 12.375 22.324219 12.375 22.300781 12.375 22.28125 C 12.355469 22.269531 12.332031 22.261719 12.3125 22.25 C 12.300781 22.199219 12.289062 22.144531 12.28125 22.09375 C 12.25 22.023438 12.25 22.023438 12.21875 21.96875 Z M 12.21875 21.96875 "/>
<path style=" stroke:none;fill-rule:nonzero;fill:rgb(85.490197%,83.92157%,81.176472%);fill-opacity:1;" d="M 11.8125 27.53125 C 12.058594 27.53125 12.308594 27.53125 12.5625 27.53125 C 12.496094 27.597656 12.46875 27.609375 12.375 27.625 C 12.34375 27.613281 12.3125 27.605469 12.28125 27.59375 C 12.199219 27.585938 12.121094 27.582031 12.039062 27.578125 C 12.019531 27.574219 11.996094 27.574219 11.972656 27.570312 C 11.921875 27.570312 11.867188 27.566406 11.8125 27.5625 C 11.8125 27.550781 11.8125 27.542969 11.8125 27.53125 Z M 11.8125 27.53125 "/>
<path style=" stroke:none;fill-rule:nonzero;fill:rgb(4.705882%,36.862746%,21.176471%);fill-opacity:1;" d="M 18.09375 19.625 C 18.125 19.636719 18.15625 19.644531 18.1875 19.65625 C 18.183594 19.675781 18.175781 19.695312 18.171875 19.714844 C 18.148438 19.78125 18.148438 19.78125 18.1875 19.84375 C 18.160156 19.839844 18.132812 19.832031 18.101562 19.828125 C 18.003906 19.8125 17.9375 19.820312 17.84375 19.84375 C 17.867188 19.824219 17.890625 19.804688 17.914062 19.789062 C 17.980469 19.734375 18.039062 19.683594 18.09375 19.625 Z M 18.09375 19.625 "/>
<path style=" stroke:none;fill-rule:nonzero;fill:rgb(4.705882%,34.509805%,18.431373%);fill-opacity:1;" d="M 14.375 14.03125 C 14.453125 14.078125 14.453125 14.078125 14.53125 14.15625 C 14.554688 14.261719 14.554688 14.261719 14.5625 14.375 C 14.582031 14.4375 14.601562 14.5 14.625 14.5625 C 14.535156 14.484375 14.496094 14.402344 14.445312 14.296875 C 14.433594 14.265625 14.421875 14.238281 14.40625 14.207031 C 14.375 14.125 14.375 14.125 14.375 14.03125 Z M 14.375 14.03125 "/>
<path style=" stroke:none;fill-rule:nonzero;fill:rgb(96.470588%,95.686275%,95.294118%);fill-opacity:1;" d="M 16.875 10.53125 C 16.90625 10.550781 16.9375 10.574219 16.96875 10.59375 C 17.019531 10.605469 17.074219 10.617188 17.125 10.625 C 17.125 10.636719 17.125 10.644531 17.125 10.65625 C 16.902344 10.660156 16.6875 10.648438 16.46875 10.625 C 16.46875 10.613281 16.46875 10.605469 16.46875 10.59375 C 16.496094 10.59375 16.523438 10.589844 16.550781 10.589844 C 16.601562 10.585938 16.601562 10.585938 16.65625 10.578125 C 16.6875 10.578125 16.722656 10.574219 16.757812 10.574219 C 16.839844 10.570312 16.839844 10.570312 16.875 10.53125 Z M 16.875 10.53125 "/>
<path style=" stroke:none;fill-rule:nonzero;fill:rgb(10.588235%,42.745098%,28.235295%);fill-opacity:1;" d="M 5.34375 5.3125 C 5.375 5.324219 5.40625 5.332031 5.4375 5.34375 C 5.429688 5.402344 5.429688 5.402344 5.40625 5.46875 C 5.339844 5.5 5.339844 5.5 5.265625 5.523438 C 5.226562 5.535156 5.226562 5.535156 5.183594 5.546875 C 5.15625 5.554688 5.15625 5.554688 5.125 5.5625 C 5.15625 5.527344 5.1875 5.492188 5.21875 5.453125 C 5.234375 5.433594 5.25 5.414062 5.269531 5.394531 C 5.292969 5.367188 5.316406 5.339844 5.34375 5.3125 Z M 5.34375 5.3125 "/>
<path style=" stroke:none;fill-rule:nonzero;fill:rgb(85.882354%,85.09804%,82.745099%);fill-opacity:1;" d="M 24.96875 27.3125 C 25.0625 27.3125 25.15625 27.3125 25.25 27.3125 C 25.261719 27.375 25.269531 27.4375 25.28125 27.5 C 25.21875 27.488281 25.21875 27.488281 25.15625 27.46875 C 25.144531 27.449219 25.136719 27.425781 25.125 27.40625 C 25.074219 27.382812 25.023438 27.363281 24.96875 27.34375 C 24.96875 27.332031 24.96875 27.324219 24.96875 27.3125 Z M 24.96875 27.3125 "/>
<path style=" stroke:none;fill-rule:nonzero;fill:rgb(5.490196%,36.078432%,20.784314%);fill-opacity:1;" d="M 25.09375 27.15625 C 25.136719 27.199219 25.175781 27.238281 25.21875 27.28125 C 24.96875 27.351562 24.96875 27.351562 24.84375 27.3125 C 24.894531 27.300781 24.945312 27.292969 25 27.28125 C 25.011719 27.25 25.019531 27.21875 25.03125 27.1875 C 25.050781 27.175781 25.074219 27.167969 25.09375 27.15625 Z M 25.09375 27.15625 "/>
<path style=" stroke:none;fill-rule:nonzero;fill:rgb(86.666667%,85.09804%,82.352942%);fill-opacity:1;" d="M 14.71875 27.53125 C 14.820312 27.53125 14.925781 27.53125 15.03125 27.53125 C 15 27.578125 15 27.578125 14.96875 27.625 C 14.96875 27.605469 14.96875 27.582031 14.96875 27.5625 C 14.949219 27.5625 14.925781 27.5625 14.90625 27.5625 C 14.90625 27.582031 14.90625 27.605469 14.90625 27.625 C 14.84375 27.625 14.78125 27.625 14.71875 27.625 C 14.71875 27.59375 14.71875 27.5625 14.71875 27.53125 Z M 14.71875 27.53125 "/>
<path style=" stroke:none;fill-rule:nonzero;fill:rgb(5.098039%,38.039216%,22.352941%);fill-opacity:1;" d="M 26 26.71875 C 26.03125 26.71875 26.0625 26.71875 26.09375 26.71875 C 26.09375 26.75 26.09375 26.78125 26.09375 26.8125 C 26.136719 26.800781 26.175781 26.792969 26.21875 26.78125 C 26.175781 26.824219 26.136719 26.863281 26.09375 26.90625 C 26.0625 26.894531 26.03125 26.886719 26 26.875 C 25.976562 26.8125 25.976562 26.8125 25.96875 26.75 C 25.980469 26.738281 25.988281 26.730469 26 26.71875 Z M 26 26.71875 "/>
<path style=" stroke:none;fill-rule:nonzero;fill:rgb(6.27451%,45.882353%,30.980393%);fill-opacity:1;" d="M 16.5 10.6875 C 16.613281 10.6875 16.726562 10.6875 16.84375 10.6875 C 16.8125 10.699219 16.78125 10.707031 16.75 10.71875 C 16.726562 10.78125 16.726562 10.78125 16.71875 10.84375 C 16.675781 10.84375 16.636719 10.84375 16.59375 10.84375 C 16.605469 10.8125 16.613281 10.78125 16.625 10.75 C 16.582031 10.730469 16.542969 10.707031 16.5 10.6875 Z M 16.5 10.6875 "/>
<path style=" stroke:none;fill-rule:nonzero;fill:rgb(9.019608%,41.960785%,27.058825%);fill-opacity:1;" d="M 13.8125 22.59375 C 13.824219 22.613281 13.832031 22.636719 13.84375 22.65625 C 13.921875 22.675781 13.921875 22.675781 14 22.6875 C 13.949219 22.738281 13.898438 22.789062 13.84375 22.84375 C 13.78125 22.75 13.78125 22.75 13.792969 22.664062 C 13.800781 22.640625 13.804688 22.617188 13.8125 22.59375 Z M 13.8125 22.59375 "/>
<path style=" stroke:none;fill-rule:nonzero;fill:rgb(7.058824%,36.862746%,21.568628%);fill-opacity:1;" d="M 13.90625 22.375 C 13.917969 22.375 13.925781 22.375 13.9375 22.375 C 13.9375 22.46875 13.9375 22.5625 13.9375 22.65625 C 13.90625 22.65625 13.875 22.65625 13.84375 22.65625 C 13.871094 22.410156 13.871094 22.410156 13.90625 22.375 Z M 13.90625 22.375 "/>
<path style=" stroke:none;fill-rule:nonzero;fill:rgb(5.490196%,45.490196%,29.803923%);fill-opacity:1;" d="M 17.15625 10.75 C 17.226562 10.761719 17.300781 10.769531 17.375 10.78125 C 17.363281 10.84375 17.355469 10.90625 17.34375 10.96875 C 17.25 10.9375 17.25 10.9375 17.195312 10.84375 C 17.183594 10.8125 17.171875 10.78125 17.15625 10.75 Z M 17.15625 10.75 "/>
<path style=" stroke:none;fill-rule:nonzero;fill:rgb(5.098039%,45.09804%,30.19608%);fill-opacity:1;" d="M 15.59375 6.289062 C 15.617188 6.296875 15.636719 6.304688 15.65625 6.3125 C 15.667969 6.34375 15.675781 6.375 15.6875 6.40625 C 15.605469 6.40625 15.523438 6.40625 15.4375 6.40625 C 15.449219 6.375 15.457031 6.34375 15.46875 6.3125 C 15.53125 6.28125 15.53125 6.28125 15.59375 6.289062 Z M 15.59375 6.289062 "/>
<path style=" stroke:none;fill-rule:nonzero;fill:rgb(8.627451%,45.882353%,31.764707%);fill-opacity:1;" d="M 27.40625 6.3125 C 27.425781 6.371094 27.425781 6.371094 27.4375 6.4375 C 27.417969 6.457031 27.394531 6.480469 27.375 6.5 C 27.375 6.480469 27.375 6.457031 27.375 6.4375 C 27.324219 6.425781 27.273438 6.417969 27.21875 6.40625 C 27.300781 6.3125 27.300781 6.3125 27.40625 6.3125 Z M 27.40625 6.3125 "/>
<path style=" stroke:none;fill-rule:nonzero;fill:rgb(5.882353%,38.431373%,22.745098%);fill-opacity:1;" d="M 12.65625 23.28125 C 12.675781 23.300781 12.699219 23.324219 12.71875 23.34375 C 12.683594 23.449219 12.652344 23.46875 12.5625 23.53125 C 12.5625 23.460938 12.5625 23.386719 12.5625 23.3125 C 12.59375 23.324219 12.625 23.332031 12.65625 23.34375 C 12.65625 23.324219 12.65625 23.300781 12.65625 23.28125 Z M 12.65625 23.28125 "/>
<path style=" stroke:none;fill-rule:nonzero;fill:rgb(14.901961%,41.176471%,27.058825%);fill-opacity:1;" d="M 21.90625 15.21875 C 21.90625 15.3125 21.90625 15.3125 21.835938 15.398438 C 21.75 15.46875 21.75 15.46875 21.65625 15.46875 C 21.738281 15.386719 21.820312 15.304688 21.90625 15.21875 Z M 21.90625 15.21875 "/>
<path style=" stroke:none;fill-rule:nonzero;fill:rgb(86.666667%,85.09804%,82.745099%);fill-opacity:1;" d="M 15.09375 29.71875 C 15.136719 29.71875 15.175781 29.71875 15.21875 29.71875 C 15.207031 29.761719 15.199219 29.800781 15.1875 29.84375 C 15.144531 29.855469 15.105469 29.863281 15.0625 29.875 C 15.0625 29.78125 15.0625 29.78125 15.09375 29.71875 Z M 15.09375 29.71875 "/>
<path style=" stroke:none;fill-rule:nonzero;fill:rgb(75.686276%,81.176472%,76.078433%);fill-opacity:1;" d="M 25 23.59375 C 25.011719 23.59375 25.019531 23.59375 25.03125 23.59375 C 25.035156 23.617188 25.039062 23.640625 25.039062 23.664062 C 25.0625 23.753906 25.097656 23.804688 25.15625 23.875 C 25.113281 23.886719 25.074219 23.894531 25.03125 23.90625 C 24.980469 23.804688 25 23.707031 25 23.59375 Z M 25 23.59375 "/>
<path style=" stroke:none;fill-rule:nonzero;fill:rgb(94.901961%,94.117647%,92.156863%);fill-opacity:1;" d="M 18.25 23.09375 C 18.28125 23.105469 18.3125 23.113281 18.34375 23.125 C 18.3125 23.207031 18.292969 23.242188 18.214844 23.289062 C 18.195312 23.296875 18.175781 23.304688 18.15625 23.3125 C 18.175781 23.28125 18.199219 23.25 18.21875 23.21875 C 18.199219 23.207031 18.175781 23.199219 18.15625 23.1875 C 18.167969 23.167969 18.175781 23.144531 18.1875 23.125 C 18.207031 23.136719 18.230469 23.144531 18.25 23.15625 C 18.25 23.136719 18.25 23.113281 18.25 23.09375 Z M 18.25 23.09375 "/>
<path style=" stroke:none;fill-rule:nonzero;fill:rgb(10.196079%,45.490196%,30.980393%);fill-opacity:1;" d="M 22.9375 13.4375 C 22.96875 13.4375 23 13.4375 23.03125 13.4375 C 23.050781 13.507812 23.074219 13.582031 23.09375 13.65625 C 23.050781 13.644531 23.011719 13.636719 22.96875 13.625 C 22.957031 13.5625 22.949219 13.5 22.9375 13.4375 Z M 22.9375 13.4375 "/>
<path style=" stroke:none;fill-rule:nonzero;fill:rgb(10.196079%,45.09804%,30.19608%);fill-opacity:1;" d="M 14.28125 13.3125 C 14.300781 13.324219 14.324219 13.332031 14.34375 13.34375 C 14.332031 13.425781 14.324219 13.507812 14.3125 13.59375 C 14.28125 13.574219 14.25 13.550781 14.21875 13.53125 C 14.246094 13.382812 14.246094 13.382812 14.28125 13.3125 Z M 14.28125 13.3125 "/>
<path style=" stroke:none;fill-rule:nonzero;fill:rgb(3.137255%,38.039216%,21.568628%);fill-opacity:1;" d="M 14.75 11.5625 C 14.769531 11.59375 14.792969 11.625 14.8125 11.65625 C 14.761719 11.699219 14.710938 11.738281 14.65625 11.78125 C 14.65625 11.671875 14.683594 11.644531 14.75 11.5625 Z M 14.75 11.5625 "/>
<path style=" stroke:none;fill-rule:nonzero;fill:rgb(3.529412%,37.254903%,21.176471%);fill-opacity:1;" d="M 5.1875 5.5625 C 5.140625 5.683594 5.082031 5.722656 4.96875 5.78125 C 5.066406 5.5625 5.066406 5.5625 5.1875 5.5625 Z M 5.1875 5.5625 "/>
</g>
</svg>
